<?xml version="1.0" standalone="no"?>
<!DOCTYPE svg PUBLIC "-//W3C//DTD SVG 1.1//EN" "http://www.w3.org/Graphics/SVG/1.1/DTD/svg11.dtd" >
<svg xmlns="http://www.w3.org/2000/svg">
<metadata>
Created by FontForge 20120731 at Sat Jun 18 17:40:14 2016
 By admin
</metadata>
<defs>
<font id="iconfont" horiz-adv-x="1024" >
  <font-face 
    font-family="iconfont"
    font-weight="500"
    font-stretch="normal"
    units-per-em="1024"
    panose-1="2 0 6 3 0 0 0 0 0 0"
    ascent="896"
    descent="-128"
    x-height="792"
    bbox="0 -204 1295 896"
    underline-thickness="50"
    underline-position="-100"
    unicode-range="U+0078-E621"
  />
<missing-glyph horiz-adv-x="374" 
d="M34 0v682h272v-682h-272zM68 34h204v614h-204v-614z" />
    <glyph glyph-name=".notdef" horiz-adv-x="374" 
d="M34 0v682h272v-682h-272zM68 34h204v614h-204v-614z" />
    <glyph glyph-name=".null" horiz-adv-x="0" 
 />
    <glyph glyph-name="nonmarkingreturn" horiz-adv-x="341" 
 />
    <glyph glyph-name="x" unicode="x" horiz-adv-x="1001" 
d="M281 543q-27 -1 -53 -1h-83q-18 0 -36.5 -6t-32.5 -18.5t-23 -32t-9 -45.5v-76h912v41q0 16 -0.5 30t-0.5 18q0 13 -5 29t-17 29.5t-31.5 22.5t-49.5 9h-133v-97h-438v97zM955 310v-52q0 -23 0.5 -52t0.5 -58t-10.5 -47.5t-26 -30t-33 -16t-31.5 -4.5q-14 -1 -29.5 -0.5
t-29.5 0.5h-32l-45 128h-439l-44 -128h-29h-34q-20 0 -45 1q-25 0 -41 9.5t-25.5 23t-13.5 29.5t-4 30v167h911zM163 247q-12 0 -21 -8.5t-9 -21.5t9 -21.5t21 -8.5q13 0 22 8.5t9 21.5t-9 21.5t-22 8.5zM316 123q-8 -26 -14 -48q-5 -19 -10.5 -37t-7.5 -25t-3 -15t1 -14.5
t9.5 -10.5t21.5 -4h37h67h81h80h64h36q23 0 34 12t2 38q-5 13 -9.5 30.5t-9.5 34.5q-5 19 -11 39h-368zM336 498v228q0 11 2.5 23t10 21.5t20.5 15.5t34 6h188q31 0 51.5 -14.5t20.5 -52.5v-227h-327z" />
    <glyph glyph-name="uniE600" unicode="&#xe600;" 
d="M928 -148h-832q-40 0 -68 28t-28 68v704q0 40 28 68t68 28h832q40 0 68 -28t28 -68v-704q0 -40 -28 -68t-68 -28zM96 684q-13 0 -22.5 -9.5t-9.5 -22.5v-704q0 -13 9.5 -22.5t22.5 -9.5h832q13 0 22.5 9.5t9.5 22.5v704q0 13 -9.5 22.5t-22.5 9.5h-832zM64 492h896v-64
h-896v64zM192 684h64v-192h-64v192zM384 684h64v-192h-64v192zM576 684h64v-192h-64v192zM768 684h64v-192h-64v192zM438 293q-54 27 -54 -43v-154q0 -69 54 -42l163 85q29 14 30.5 34t-26.5 35z" />
    <glyph glyph-name="uniE601" unicode="&#xe601;" horiz-adv-x="1026" 
d="M773 159q-71 86 -46 269h41v128h-128v-128h22q-13 -97 2.5 -177t58.5 -133q90 -109 301 -109v64q-181 0 -251 86zM1024 358v422q0 13 -9.5 22.5t-22.5 9.5h-525l-422 -422q-37 -37 -37.5 -90t36.5 -91l362 -374q37 -39 90 -39t90 39l438 433l2 92zM540 -121
q-18 -18 -44 -18t-44 18l-362 374q-19 19 -18.5 46t18.5 46l403 403h467v-453z" />
    <glyph glyph-name="uniE602" unicode="&#xe602;" 
d="M672 -126h-446q-95 0 -158.5 64t-63.5 160q0 63 32.5 110t81.5 69.5t106 22.5q27 61 84.5 97t127.5 36q53 0 95 -17t65.5 -41t41 -56.5t24 -54.5t9.5 -45q19 0 27 -1q68 -7 112 -53.5t44 -110.5q0 -85 -48 -132.5t-134 -47.5zM226 257q-72 0 -126 -42.5t-54 -116.5
q0 -85 54 -133t126 -48h446q27 0 49.5 5.5t44 20t33.5 43t12 68.5q0 48 -32.5 82t-85.5 40q-4 0 -13.5 0.5t-17.5 0.5h-10h-20l-1 20q-1 6 -1.5 14t-5.5 28t-12 38t-22 39.5t-34.5 37.5t-50.5 26.5t-69 10.5q-61 0 -109.5 -33t-68.5 -88l-5 -15l-16 1q-3 0 -6.5 0.5
t-4.5 0.5zM816 367q0 89 -54.5 144t-144.5 55q-57 0 -106.5 -30t-75.5 -80l38 -19q20 39 59.5 62.5t84.5 23.5q72 0 114.5 -42.5t42.5 -113.5q0 -74 -55 -119l27 -33q70 58 70 152zM948.5 110.5q6.5 6.5 6.5 15t-6 15.5l-71 70q-6 6 -15 6t-15 -6t-6 -15t6 -15l70 -70
q7 -7 15.5 -7t15 6.5zM1002 365q0 9 -6.5 15t-14.5 6h-86q-9 0 -15 -6t-6 -15t6 -15.5t15 -6.5h86q9 0 15 6.5t6 15.5zM849 527l67 66q6 6 6 15t-6 15.5t-15 6.5t-15 -7l-67 -66q-6 -6 -6 -15t6 -15t15 -6t15 6zM682 642v85q0 9 -6.5 15.5t-15 6.5t-15 -6.5t-6.5 -15.5v-85
q0 -9 6.5 -15t15 -6t15 6t6.5 15zM491.5 585.5q6.5 6.5 6.5 15t-7 15.5l-69 70q-7 6 -15.5 6t-15 -6.5t-6.5 -15t6 -15.5l70 -70q6 -6 15 -6t15.5 6.5z" />
    <glyph glyph-name="uniE603" unicode="&#xe603;" 
d="M157 603h263v-201h-263v201zM461 578h368v-28h-368v28zM461 448h368v-32h-368v32zM128 307h704v-32h-704v32zM128 176l704 -1v-32l-704 1v32zM940 663l-25 3l-3 -21l25 -3q7 -1 11.5 -6.5t4.5 -12.5l-59 -467v517q0 12 -9 21t-22 9h-767q-13 0 -22 -9t-9 -21v-576
q0 -13 9 -22t22 -9h767q6 0 11 2q13 1 22.5 10.5t11.5 22.5l65 519q2 16 -8 28.5t-25 14.5zM96 86q-4 0 -7 3t-3 8v576q0 4 3 7t7 3h767q5 0 8 -3t3 -7v-576q0 -6 -5 -9h-1v-1q-2 -1 -5 -1h-767z" />
    <glyph glyph-name="uniE604" unicode="&#xe604;" 
d="M663 335q52 36 82.5 93t30.5 123q0 110 -77.5 187.5t-187.5 77.5q-109 0 -186 -77.5t-77 -185.5q0 -67 30.5 -124t82.5 -92q-117 -47 -190 -152t-73 -234h74q0 129 86.5 225.5t212.5 111.5h6q6 1 14.5 1t19 0.5t23 0t22.5 -1.5h4q124 -18 207 -113t83 -223h76
q-1 129 -74 233.5t-189 149.5zM511 355q-82 0 -140 57.5t-58 140t58 140.5t140.5 58t140.5 -58t58 -140.5t-58 -140t-141 -57.5zM511 355z" />
    <glyph glyph-name="uniE605" unicode="&#xe605;" horiz-adv-x="1027" 
d="M994 303h-397v-397h-158v397h-397v159h397v397h158v-397h397v-159z" />
    <glyph glyph-name="uniE606" unicode="&#xe606;" 
d="M577 435l246 184q43 42 0 85l-246 183q-12 9 -27 9q-20 0 -33.5 -13t-13.5 -32v-83q-91 0 -174 -35.5t-143 -95.5t-95.5 -143t-35.5 -174t35.5 -174t96 -143t143.5 -95.5t174 -35.5q113 0 211 52t160 142.5t75 200.5q1 3 1 10q0 18 -12.5 30.5t-30.5 12.5h-107
q-25 0 -44 -14t-22 -31q-15 -82 -80 -136t-151 -54q-97 0 -166 69t-69 166t68.5 165.5t165.5 69.5v-84q0 -18 13.5 -31t33.5 -13q15 0 27 8z" />
    <glyph glyph-name="uniE607" unicode="&#xe607;" 
d="M608 576q-13 0 -22.5 -9.5t-9.5 -22.5t9.5 -22.5t22.5 -9.5h64q13 0 22.5 9.5t9.5 22.5t-9.5 22.5t-22.5 9.5h-64zM1023 676q-1 12 -11 18l-323 196q-5 2 -11 3h-38q-1 -26 -38 -44.5t-89.5 -18.5t-89.5 18.5t-38 44.5h-38q-6 -1 -11 -3l-323 -196q-10 -6 -11 -18
q-1 -3 -1 -6v-64q0 -9 6 -16q4 -7 12 -12l173 -112v-561q0 -13 9.5 -22.5t22.5 -9.5h1h1h573h1v0h1q13 0 22.5 9.5t9.5 22.5v559l173 114q7 4 11 11q7 8 7 17v64q0 3 -1 6zM960 624l-177 -116q-21 -12 -15 -36v-535h-511v538q6 23 -15 35l-177 114v27l283 170
q21 -24 65.5 -38.5t99 -14.5t99 14.5t65.5 38.5l283 -170v-27z" />
    <glyph glyph-name="uniE608" unicode="&#xe608;" horiz-adv-x="1025" 
d="M761 433l-239 -239l-238 239l25 25l213 -214l214 214zM504.5 880q-102.5 0 -196 -40.5t-161 -108t-107.5 -161t-40 -195.5q0 -110 44.5 -207t122.5 -168l25 25q-73 66 -115 157t-42 193q0 95 37.5 182t100.5 150t149.5 100t182 37t182.5 -37t149.5 -100t100 -150
t37.5 -182t-37.5 -182t-100 -150t-149.5 -100t-182 -37q-136 0 -251 72l-26 -25q126 -83 277 -83q102 0 195.5 40t161 107.5t107.5 161t40 196t-40 196t-107.5 161t-161 108t-196 40.5z" />
    <glyph glyph-name="uniE609" unicode="&#xe609;" 
d="M507 879q-102 0 -195 -39.5t-160 -106.5t-107 -160t-40 -195t40 -194.5t107 -159.5t160 -107t195 -40t194.5 40t159.5 107t107 159.5t40 194.5t-40 195t-107 160t-159.5 106.5t-194.5 39.5zM256 190h-63v439h63v-439zM695 253h-376v125h376v-125zM695 441h-376v63h376
v-63zM820 190h-63v376h63v-376z" />
    <glyph glyph-name="uniE60A" unicode="&#xe60a;" 
d="M513.5 893q-103.5 0 -197.5 -40t-162 -108t-108 -162t-40 -197.5t40 -197.5t108 -162t162 -108t197.5 -40t197.5 40t162 108t108 162t40 197.5t-40 197.5t-108 162t-162 108t-197.5 40zM474 434q-3 -1 -7.5 -4t-12 -20t-7.5 -42l4 -330q0 -16 -10.5 -27t-26 -11t-26.5 11
t-11 27l5 330q0 25 -7 42t-14 21l-7 3v1q-37 15 -37 82l10 196h36v-163q0 -6 4.5 -10.5t11 -4.5t11.5 4.5t5 10.5v163h39v-163q0 -6 4.5 -10.5t11 -4.5t11.5 4.5t5 10.5v163h37l8 -196q0 -67 -37 -82v-1zM605.5 0q-48.5 0 -76.5 41.5t-28 104.5q0 31 6.5 56t13.5 36t16 23
t11 14q1 2 6.5 10t8.5 13.5t6 20.5t3 35l-4 330q0 16 11 27t26.5 11t26 -11t10.5 -27l-4 -330q0 -20 2.5 -35t5 -20t9.5 -14t8 -10q0 -1 10.5 -14t17 -23.5t12.5 -35.5t6 -56q0 -63 -27.5 -104.5t-76 -41.5z" />
    <glyph glyph-name="uniE60B" unicode="&#xe60b;" 
d="M630 533h126v-346h-126v346zM315 250h252v315v31h-252v-346zM504.5 880q-102.5 0 -196 -40t-161 -107.5t-107 -161t-39.5 -196t39.5 -195.5t107 -160.5t161 -107.5t196 -40t195.5 40t160.5 107.5t107.5 160.5t40 195.5t-40 196t-107.5 161t-160.5 107.5t-195.5 40z
M819 124h-252v32v4v10v17h-252v-126h-63v630h63v-32h315v-63h189v-472z" />
    <glyph glyph-name="uniE60C" unicode="&#xe60c;" 
d="M924 559q-34 80 -96 142t-142 96q-83 35 -174 35t-175 -35q-80 -34 -142 -96t-96 -142q-35 -84 -35 -175t35 -174q34 -80 96 -142t142 -96q84 -35 175 -35t174 35q80 34 142 96t96 142q35 83 35 174t-35 175zM896 414h-117q-11 93 -77.5 160t-159.5 77v117
q142 -11 242.5 -111t111.5 -243zM511.5 175q-86.5 0 -147.5 61.5t-61 148t61 147.5t147.5 61t148 -61t61.5 -147.5t-61.5 -148t-148 -61.5zM482 768v-117q-93 -10 -160 -77t-77 -160h-117q11 143 111 243t243 111zM128 354h117q10 -93 77 -159.5t160 -77.5v-117
q-143 11 -243 111.5t-111 242.5zM542 0v117q93 11 159.5 77.5t77.5 159.5h117q-11 -142 -111.5 -242.5t-242.5 -111.5z" />
    <glyph glyph-name="uniE60D" unicode="&#xe60d;" 
d="M404 627h-164l-1 -100h165v100zM655 627h113v-100h-113v100zM518 373q12 6 23 0l64 -32v286h-151v-286zM504 880v0q-118 0 -221.5 -51.5t-174.5 -141.5q-107 -137 -107 -311q0 -102 40 -195.5t107 -161t160.5 -107t196 -39.5t195.5 39.5t160.5 107t107.5 161t40 195.5
t-40 195.5t-107.5 161t-160.5 107.5t-196 40zM819 86q0 -11 -7.5 -18t-18.5 -7h-578q-11 0 -18 7t-7 18v567q0 11 7 18t18 7h578q11 0 18.5 -7t7.5 -18v-567zM655 300q0 -14 -12 -21q-6 -4 -13 -4q-6 0 -11 3l-89 44l-90 -44q-12 -6 -24 1t-12 21v176h-164v-366h528v366
h-113v-176zM353 376h-100v50h100v-50z" />
    <glyph glyph-name="uniE60E" unicode="&#xe60e;" 
d="M630 654h-50v50h-151v-50h-51v-50h252v50zM681 553h-353v51h-50v-492h453v492h-50v-51zM655 187h-302v51h302v-51zM655 315h-302v50h302v-50zM655 419h-302v51h302v-51zM504.5 880q-102.5 0 -196 -40t-161 -107.5t-107 -161t-39.5 -196t39.5 -195.5t107 -160.5
t161 -107.5t196 -40t195.5 40t160.5 107.5t107.5 160.5t40 195.5t-40 196t-107.5 161t-160.5 107.5t-195.5 40zM124 376l1 1v-3zM781 87q0 -11 -7 -18.5t-18 -7.5h-503q-11 0 -18.5 7.5t-7.5 18.5v542q0 10 7.5 17.5t18.5 7.5h75v50h50v51h252v-51h51v-50h75q11 0 18 -7.5
t7 -17.5v-542z" />
    <glyph glyph-name="uniE60F" unicode="&#xe60f;" 
d="M396 200h210v50h50v270h-310v-270h50v-50zM383 460h240v-50h-240v50zM383 313v50h240v-50h-240zM245 99h512v521h-512v-521zM296 570h411v-370h-51v-51h-310v51h-50v370zM504.5 880q-102.5 0 -196 -40t-161 -107.5t-107 -161t-39.5 -196t39.5 -195.5t107 -160.5
t161 -107.5t196 -40t195.5 40t160.5 107.5t107.5 160.5t40 195.5t-40 196t-107.5 161t-160.5 107.5t-195.5 40zM124 376l1 1v-3zM807 74q0 -10 -7.5 -17.5t-17.5 -7.5h-562q-10 0 -17.5 7.5t-7.5 17.5v571q0 11 7.5 18.5t17.5 7.5h562q10 0 17.5 -7.5t7.5 -18.5v-571z" />
    <glyph glyph-name="uniE610" unicode="&#xe610;" 
d="M240 210h75q11 0 18 -7t7 -18v-38l109 56q7 7 17 7h277v378h-503v-378zM290 521h403v-51h-403v51zM290 420h403v-50h-403v50zM290 319h240v-50h-240v50zM504 880v0q-118 0 -221.5 -51.5t-174.5 -141.5q-107 -137 -107 -311q0 -103 39.5 -196t107 -160.5t161 -107.5
t196 -40t195.5 40t160.5 107.5t107.5 160.5t40 195.5t-40 196t-107.5 161t-160.5 107.5t-196 40zM794 185q0 -10 -7.5 -17.5t-18.5 -7.5h-291l-144 -91q-7 -8 -18 -8q-5 0 -9 2q-16 7 -16 24v73h-75q-11 0 -18.5 7.5t-7.5 17.5v428q0 10 7.5 17.5t18.5 7.5h553
q11 0 18.5 -7.5t7.5 -17.5v-428z" />
    <glyph glyph-name="uniE611" unicode="&#xe611;" 
d="M504.5 700q-88.5 0 -164 -44t-119.5 -119.5t-44 -164.5t44 -164t119.5 -119t164 -44t164 44t119.5 119t44 164t-44 164.5t-119.5 119.5t-164 44zM655 397h-125v-100h125v-51h-125v-126h-51v126h-126v51h126v100h-126v51h151q-10 0 -17 7l-101 101l35 35l83 -82l83 82
l36 -35l-101 -101q-7 -7 -18 -7h151v-51zM504.5 880q-102.5 0 -196 -40t-161 -107.5t-107 -161t-39.5 -196t39.5 -195.5t107 -160.5t161 -107.5t196 -40t195.5 40t160.5 107.5t107.5 160.5t40 195.5t-40 196t-107.5 161t-160.5 107.5t-195.5 40zM852 225q-28 -68 -80.5 -120
t-120.5 -81q-70 -29 -146.5 -29t-147.5 29q-67 29 -119.5 81t-81.5 120q-29 70 -29 147t29 147q29 68 81.5 120.5t119.5 80.5q71 30 147.5 30t146.5 -30q68 -28 120.5 -80.5t80.5 -120.5q30 -70 30 -147t-30 -147z" />
    <glyph glyph-name="uniE612" unicode="&#xe612;" 
d="M507 704q-89 0 -164.5 -44t-119 -119.5t-43.5 -164t43.5 -164t119 -119.5t164.5 -44t164.5 44t119 119.5t43.5 164t-43.5 164t-119 119.5t-164.5 44zM280 502h368l-25 25l35 36l68 -68q12 -12 5.5 -27.5t-23.5 -15.5h-428v50zM734 250h-368l26 -25l-36 -35l-68 68
q-12 12 -5.5 27.5t23.5 15.5h428v-51zM504.5 880q-102.5 0 -195.5 -40t-160.5 -107.5t-107.5 -161t-40 -195.5t39.5 -194.5t106 -160t158.5 -107.5t194 -41h5v0q103 0 196 39.5t160.5 107t107.5 161t40 195.5t-40 195.5t-107.5 161t-160.5 107.5t-195.5 40zM855 229
q-29 -68 -81 -120t-120 -81q-70 -29 -147 -29t-147 29q-68 29 -120 81t-81 120q-30 70 -30 147t30 147q29 68 81 120.5t120 80.5q70 30 147 30t147 -30q68 -28 120 -80.5t81 -120.5q30 -70 30 -147t-30 -147z" />
    <glyph glyph-name="uniE613" unicode="&#xe613;" horiz-adv-x="1302" 
d="M848 814l-371 80q-12 3 -24 1q-12 2 -25 -1l-373 -81q-24 -5 -39.5 -24.5t-15.5 -43.5v-804q0 -31 23.5 -49.5t52.5 -12.5l374 82h3h2l374 -82q10 -2 19 -1q9 -1 18 1l374 82q24 5 39.5 24t15.5 43v805q0 31 -23.5 49.5t-53.5 11.5zM790 -8l-287 63v730l287 -63v-730z
M402 785v-730l-300 -66v730zM1207 785v-730l-300 -66v730z" />
    <glyph glyph-name="uniE614" unicode="&#xe614;" 
d="M561.5 360q-50.5 0 -50.5 -64.5t50.5 -64.5t50.5 64.5t-50.5 64.5zM561.5 360q-50.5 0 -50.5 -64.5t50.5 -64.5t50.5 64.5t-50.5 64.5zM937 554h-851q-9 0 -15 -6t-6 -15v-403q0 -8 6 -14t15 -6h851q8 0 14 6t6 14v403q0 9 -6 15t-14 6zM415 190h-56v128q0 11 -1 18.5
t-10 15.5t-25 8q-19 0 -31 -13t-12 -36v-121h-56v285h56v-101q6 13 23 22.5t38 9.5q33 0 53.5 -18t20.5 -52v-146zM561.5 185q-45.5 0 -76.5 28.5t-31 82.5t31 82t76.5 28t76.5 -28t31 -82t-31 -82.5t-76.5 -28.5zM805 361h-35v-114q0 -10 4 -13.5t19 -3.5q4 0 12 1v-42
q-17 -1 -26 -1h-7q-34 0 -45.5 11t-11.5 34v128h-29v40h29v57h55v-57h35v-40zM561.5 360q-50.5 0 -50.5 -64.5t50.5 -64.5t50.5 64.5t-50.5 64.5zM561.5 360q-50.5 0 -50.5 -64.5t50.5 -64.5t50.5 64.5t-50.5 64.5zM561.5 360q-50.5 0 -50.5 -64.5t50.5 -64.5t50.5 64.5
t-50.5 64.5z" />
    <glyph glyph-name="uniE615" unicode="&#xe615;" 
d="M433 848h-338q-18 0 -30 -12.5t-12 -29.5v-339q0 -17 12 -29.5t30 -12.5h338q18 0 30.5 12.5t12.5 29.5v339q0 17 -12.5 29.5t-30.5 12.5zM439 467q0 -5 -6 -5h-338q-6 0 -6 5v339q0 5 6 5h338q6 0 6 -5v-339zM323 722h-118q-11 0 -18.5 -8t-7.5 -19v-117q0 -11 7.5 -19
t18.5 -8h118q11 0 19 8t8 19v117q0 11 -8 19t-19 8zM313 588h-98v97h98v-97zM323 220h-118q-11 0 -18.5 -7.5t-7.5 -18.5v-118q0 -11 7.5 -19t18.5 -8h118q11 0 19 8t8 19v118q0 11 -8 18.5t-19 7.5zM313 86h-98v98h98v-98zM699 551h118q11 0 18.5 8t7.5 19v117
q0 11 -7.5 19t-18.5 8h-118q-11 0 -19 -8t-8 -19v-117q0 -11 8 -19t19 -8zM709 685h98v-97h-98v97zM433 350h-338q-18 0 -30 -12.5t-12 -30.5v-338q0 -18 12 -30t30 -12h338q18 0 30.5 12t12.5 30v338q0 18 -12.5 30.5t-30.5 12.5zM439 -31q0 -6 -6 -6h-338q-6 0 -6 6v338
q0 6 6 6h338q6 0 6 -6v-338zM591 348q-18 0 -30 -12.5t-12 -29.5v-195q0 -7 5 -12.5t13 -5.5t13 5.5t5 12.5v195q0 5 6 5h205q7 0 12.5 5.5t5.5 13t-5.5 13t-12.5 5.5h-205zM589 425h338q18 0 30 12.5t12 29.5v339q0 17 -12 29.5t-30 12.5h-338q-18 0 -30.5 -12.5
t-12.5 -29.5v-339q0 -17 12.5 -29.5t30.5 -12.5zM583 806q0 5 6 5h338q6 0 6 -5v-339q0 -5 -6 -5h-338q-6 0 -6 5v339zM970 330q0 7 -5.5 12.5t-13.5 5.5h-67q-8 0 -13.5 -5.5t-5.5 -13t5.5 -13t13.5 -5.5h49v-71h-153q-8 0 -13.5 -5t-5.5 -13t5.5 -13t13.5 -5h171
q8 0 13.5 5t5.5 13v0v108zM630 -37h-45v51q0 8 -5 13.5t-13 5.5t-13 -5.5t-5 -13.5v-70q0 -7 5 -12.5t13 -5.5h63q8 0 13.5 5.5t5.5 13t-5.5 13t-13.5 5.5zM834 105.5q0 7.5 -5.5 13t-12.5 5.5h-117q-7 0 -12.5 -5.5t-5.5 -12.5v-163q0 -8 5.5 -13.5t13 -5.5t13 5.5
t5.5 13.5v144h98q7 0 12.5 5.5t5.5 13zM951 173q-8 0 -13 -5.5t-5 -13.5v-194h-167q-8 0 -13 -5.5t-5 -13t5 -13t13 -5.5h185q8 0 13 5.5t5 12.5v213q0 8 -5 13.5t-13 5.5zM656 272q-8 0 -13 -5t-5 -13v-60q0 -8 5 -13t13 -5t13 5t5 13v60q0 8 -5 13t-13 5z" />
    <glyph glyph-name="uniE616" unicode="&#xe616;" 
d="M865 -60h-696q-27 0 -46.5 19.5t-19.5 47.5v243q0 8 5 13t13 5t13 -5t5 -13v-243q0 -13 9 -21.5t21 -8.5h696q13 0 21.5 8.5t8.5 21.5v243q0 8 5.5 13t13 5t13 -5t5.5 -13v-243q0 -28 -19.5 -47.5t-47.5 -19.5zM913.5 496q-7.5 0 -13 5t-5.5 13v260q0 13 -8.5 21.5
t-21.5 8.5h-696q-12 0 -21 -8.5t-9 -21.5v-260q0 -8 -5 -13t-13 -5t-13 5t-5 13v260q0 28 19.5 47.5t46.5 19.5h696q28 0 47.5 -19.5t19.5 -47.5v-260q0 -8 -5.5 -13t-13 -5zM961 369h-887q-8 0 -13 5.5t-5 13t5 13t13 5.5h887q8 0 13.5 -5.5t5.5 -13t-5.5 -13t-13.5 -5.5z
" />
    <glyph glyph-name="uniE617" unicode="&#xe617;" 
d="M204 348l-26 50q11 -26 26 -50zM790 348q9 15 17 31zM497 739q-84 0 -143.5 -59.5t-59.5 -143.5t59.5 -143.5t143.5 -59.5t143.5 59.5t59.5 143.5t-59.5 143.5t-143.5 59.5zM496.5 387q-61.5 0 -105 43.5t-43.5 105.5t43.5 105.5t105 43.5t105.5 -43.5t44 -105.5
t-44 -105.5t-105.5 -43.5zM497 880q-94 0 -174 -46.5t-126.5 -126.5t-46.5 -174q0 -9 1 -17q3 -62 27 -118l26 -50q213 -408 231 -441q17 -32 52.5 -32t54.5 33l248 440l17 31q33 66 36 140v14q0 94 -46 174t-126 126.5t-174 46.5zM756 397v0q-1 -3 -3 -6
q-238 -439 -246 -454q-6 -12 -19.5 -12t-18.5 12l-238 472l-1 2v2l-1 1v1q-25 56 -25 118q0 122 85.5 207.5t207 85.5t207.5 -85.5t86 -207.5q0 -72 -34 -136zM507 30v41v-41z" />
    <glyph glyph-name="uniE618" unicode="&#xe618;" 
d="M383 390.5q0 -21.5 -15 -36.5t-36.5 -15t-36.5 15t-15 36.5t15 36.5t36.5 15t36.5 -15t15 -36.5zM563 390.5q0 -21.5 -15 -36.5t-36 -15t-36 15t-15 36.5t15 36.5t36 15t36 -15t15 -36.5zM744 390.5q0 -21.5 -15 -36.5t-36.5 -15t-36.5 15t-15 36.5t15 36.5t36.5 15
t36.5 -15t15 -36.5z" />
    <glyph glyph-name="uniE619" unicode="&#xe619;" 
d="M691 453q-6 4 -14.5 4t-15.5 -4l-163 -163q-8 -8 -19 -8t-19 8l-159 158q-8 9 -19 9t-19 -7.5t-8 -18.5q0 -9 6 -16l5 -5l176 -176q15 -16 37 -16t38 16l177 177l2 2q7 8 7 18q0 14 -12 22z" />
    <glyph glyph-name="uniE61A" unicode="&#xe61a;" 
d="M684 224l-175 174l-174 -174q-6 -6 -14 -6t-13.5 5.5t-5.5 13.5t6 14l177 177q10 11 24.5 11t24.5 -11l177 -177q6 -6 6 -14t-5.5 -13.5t-14 -5.5t-13.5 6zM955 302.5q0 90.5 -35.5 173t-95 142t-142 95t-173 35.5t-173 -35.5t-142 -95t-95 -142t-35.5 -173t35.5 -173
t95 -142t142 -95t173 -35.5t173 35.5t142 95t95 142t35.5 173zM916 302.5q0 -110.5 -54.5 -204t-148 -148t-204 -54.5t-204 54.5t-148 148t-54.5 204t54.5 204t148 148t204 54.5t204 -54.5t148 -148t54.5 -204z" />
    <glyph glyph-name="uniE61B" unicode="&#xe61b;" 
d="M299 469l213 -213l213 213h-426z" />
    <glyph glyph-name="uniE61C" unicode="&#xe61c;" 
d="M512 555q35 0 60.5 25t25.5 60t-25.5 60t-60.5 25t-60 -25t-25 -60t25 -60t60 -25zM512 213q-35 0 -60 -25t-25 -60t25 -60t60 -25t60.5 25t25.5 60t-25.5 60t-60.5 25zM512 469q-35 0 -60 -25t-25 -60t25 -60t60 -25t60.5 25t25.5 60t-25.5 60t-60.5 25z" />
    <glyph glyph-name="uniE61D" unicode="&#xe61d;" 
d="M64 628v-656l149 119h747v537h-896zM417 203h-37v135q0 22 -11.5 35t-29.5 13q-25 0 -46.5 -25t-21.5 -62v-96h-37v320h37v-150q15 21 33 32t46 11q33 0 50 -18.5t17 -46.5v-148zM611.5 229.5q-29.5 -29.5 -71 -29.5t-71 29.5t-29.5 78t30 78.5t71 30t70.5 -30
t29.5 -78.5t-29.5 -78zM843 209q-9 -4 -21 -6.5t-33 -2.5q-33 0 -53.5 18.5t-20.5 52.5v112h-64v29h64v73h37v-73h76v-29h-76v-114q0 -15 7.5 -25.5t28 -10.5t33.5 4t22 9v-37zM540.5 383q-22.5 0 -41 -19t-18.5 -56t18.5 -56t41 -19t41 19t18.5 56t-18.5 56t-41 19z" />
    <glyph glyph-name="uniE61E" unicode="&#xe61e;" 
d="M512 811q-116 0 -214 -57.5t-155.5 -155.5t-57.5 -214t57.5 -214t155.5 -155.5t214 -57.5t214 57.5t155.5 155.5t57.5 214t-57.5 214t-155.5 155.5t-214 57.5zM469 46q-127 15 -212.5 111.5t-85.5 226.5q0 36 9 76l204 -204v-43q0 -35 25 -60t60 -25v-82zM764 154
q-9 26 -31 42.5t-50 16.5h-43v128q0 18 -12.5 30.5t-30.5 12.5h-256v85h86q17 0 29.5 12.5t12.5 30.5v85h86q35 0 60 25t25 61v17q95 -38 154 -124t59 -192q0 -132 -89 -230z" />
    <glyph glyph-name="uniE61F" unicode="&#xe61f;" 
d="M708 235l60 57l-256 241l-256 -241l60 -57l196 184z" />
    <glyph glyph-name="uniE620" unicode="&#xe620;" 
d="M512 190q-79 0 -135.5 56.5t-56.5 135.5v256q0 52 25.5 96.5t70 70t96.5 25.5q79 0 135.5 -56.5t56.5 -135.5v-256q0 -89 -69 -147q-54 -44 -123 -45zM512 766q-53 0 -90.5 -37.5t-37.5 -90.5v-256q0 -53 37.5 -90.5t90.5 -37.5t90.5 37.5t37.5 90.5v256q0 53 -37.5 90.5
t-90.5 37.5zM864 416v128q0 13 -9.5 22.5t-22.5 9.5t-22.5 -9.5t-9.5 -22.5v-128q0 -79 -38.5 -145.5t-105 -105.5t-144.5 -39q-119 0 -203.5 85t-84.5 205v128q0 13 -9.5 22.5t-22.5 9.5t-22.5 -9.5t-9.5 -22.5v-128q0 -90 42.5 -168.5t116 -127.5t161.5 -57v-63h-192
q-13 0 -22.5 -9.5t-9.5 -22.5t9.5 -22.5t22.5 -9.5h448q13 0 22.5 9.5t9.5 22.5t-9.5 22.5t-22.5 9.5h-192v63q135 13 227.5 114t92.5 239z" />
    <glyph glyph-name="uniE621" unicode="&#xe621;" 
d="M557 383l266 264q9 9 9 22t-9 23q-6 6 -14.5 8.5t-16.5 0t-15 -8.5l-265 -264l-263 264q-9 9 -22.5 9t-23 -9t-9.5 -22.5t10 -22.5l263 -264l-265 -264q-10 -9 -10 -22.5t9.5 -22.5t22.5 -9t23 9l265 264l265 -267q10 -9 23 -9q3 0 6 0.5t6 1.5t5.5 3t5.5 4q9 10 9 23
t-9 23z" />
  </font>
</defs>
</svg>
